<?xml version="1.0" encoding="UTF-8"?>
<svg width="16px" height="16px" viewBox="0 0 16 16" version="1.1" xmlns="http://www.w3.org/2000/svg" xmlns:xlink="http://www.w3.org/1999/xlink">
    <title>MaxSizeContainer</title>
    <g id="MaxSizeContainer" stroke="none" stroke-width="1" fill="none" fill-rule="evenodd">
        <g id="Container" transform="translate(1, 1)" fill="#8EEF97" fill-rule="nonzero">
            <path d="M2,0 C0.8954305,0 0,0.8954305 0,2 L2,2 L2,0 Z M4,0 L4,2 L6,2 L6,0 L4,0 Z M8,0 L8,2 L10,2 L10,0 L8,0 Z M12,0 L12,2 L14,2 C14,0.8954305 13.1045695,0 12,0 Z M0,4 L0,6 L2,6 L2,4 L0,4 Z M12,4 L12,6 L14,6 L14,4 L12,4 Z M0,8 L0,10 L2,10 L2,8 L0,8 Z M12,8 L12,10 L14,10 L14,8 L12,8 Z M0,12 C0,13.1045695 0.8954305,14 2,14 L2,12 L0,12 Z M4,12 L4,14 L6,14 L6,12 L4,12 Z M8,12 L8,14 L10,14 L10,12 L8,12 Z M12,12 L12,14 C13.1045695,14 14,13.1045695 14,12 L12,12 Z" id="Shape"></path>
        </g>
        <rect id="Rectangle" stroke="#8EEF97" stroke-width="2" x="6" y="6" width="4" height="4"></rect>
    </g>
</svg>