<?xml version="1.0" encoding="UTF-8"?>
<svg width="16px" height="16px" viewBox="0 0 16 16" version="1.1" xmlns="http://www.w3.org/2000/svg" xmlns:xlink="http://www.w3.org/1999/xlink">
    <title>ScalingRichTextLabel</title>
    <g id="ScalingRichTextLabel" stroke="none" stroke-width="1" fill="none" fill-rule="evenodd">
        <path d="M5,15 L3,15 C1.8954305,15 1,14.1045695 1,13 L1,11 L3,11 L3,13 L5,13 L5,15 Z M13,13 L13,11 L15,11 L15,13 C15,14.1045695 14.1045695,15 13,15 L11,15 L11,13 L13,13 Z M13,3 L11,3 L11,1 L13,1 C14.1045695,1 15,1.8954305 15,3 L15,5 L13,5 L13,3 Z M3,3 L3,5 L1,5 L1,3 C1,1.8954305 1.8954305,1 3,1 L5,1 L5,3 L3,3 Z" id="Combined-Shape" fill="#8EEF97" fill-rule="nonzero"></path>
        <rect id="Rectangle-Copy" stroke="#8EEF97" stroke-width="2" x="5" y="8" width="6" height="1"></rect>
        <rect id="Rectangle-Copy-2" stroke="#8EEF97" stroke-width="2" x="5" y="5" width="1" height="1"></rect>
        <rect id="Rectangle-Copy-5" stroke="#8EEF97" stroke-width="2" x="11" y="11" width="1" height="1"></rect>
        <rect id="Rectangle-Copy-4" stroke="#8EEF97" stroke-width="2" x="5" y="11" width="3" height="1"></rect>
        <rect id="Rectangle-Copy-3" stroke="#8EEF97" stroke-width="2" x="8" y="5" width="3" height="1"></rect>
    </g>
</svg>